<?xml version="1.0" standalone="no"?>
<!DOCTYPE svg PUBLIC "-//W3C//DTD SVG 20010904//EN"
 "http://www.w3.org/TR/2001/REC-SVG-20010904/DTD/svg10.dtd">
<svg version="1.0" xmlns="http://www.w3.org/2000/svg"
 width="835.000000pt" height="835.000000pt" viewBox="0 0 835.000000 835.000000"
 preserveAspectRatio="xMidYMid meet">
<metadata>
Created by potrace 1.14, written by Peter Selinger 2001-2017
</metadata>
<g transform="translate(0.000000,835.000000) scale(0.100000,-0.100000)"
fill="#000000" stroke="none">
<path d="M2138 7820 c-2 -7 -17 -12 -33 -12 -17 0 -33 -5 -37 -12 -6 -8 -8 -7
-8 2 0 6 -5 12 -11 12 -5 0 -7 -6 -3 -12 5 -9 2 -9 -9 1 -9 7 -17 10 -17 5 0
-5 -20 -9 -45 -8 -25 0 -48 -4 -52 -9 -3 -5 -9 -3 -14 4 -6 10 -9 11 -9 2 0
-8 -14 -13 -34 -13 -19 0 -38 -5 -42 -11 -4 -8 -9 -7 -15 2 -6 9 -12 10 -16 4
-5 -6 -17 -11 -28 -10 -11 0 -23 -4 -26 -9 -4 -5 -23 -9 -42 -10 -19 0 -33 -4
-30 -8 2 -5 -9 -8 -24 -8 -16 0 -34 -5 -41 -12 -7 -7 -12 -8 -12 -4 0 5 -7 3
-15 -4 -12 -10 -15 -10 -15 1 0 8 -4 7 -13 -5 -11 -16 -31 -23 -65 -25 -7 -1
-11 -5 -8 -10 4 -5 -5 -8 -19 -6 -14 1 -23 0 -20 -3 8 -8 -34 -34 -45 -27 -6
3 -10 2 -10 -3 0 -4 -15 -16 -32 -26 -101 -53 -117 -64 -111 -69 3 -4 0 -7 -8
-7 -8 0 -29 -13 -46 -29 -18 -16 -34 -26 -37 -23 -3 3 -6 -2 -6 -12 0 -9 -4
-15 -9 -12 -5 3 -53 -39 -107 -93 -112 -112 -130 -132 -126 -144 1 -5 -2 -6
-8 -2 -5 3 -13 -2 -17 -11 -4 -10 -19 -31 -35 -47 -15 -16 -25 -33 -22 -38 3
-5 0 -9 -5 -9 -6 0 -11 -7 -11 -16 0 -8 -4 -13 -9 -10 -5 3 -12 -6 -15 -20 -4
-14 -15 -35 -26 -46 -11 -12 -17 -24 -15 -28 3 -4 -2 -13 -10 -20 -8 -7 -12
-16 -9 -21 3 -5 1 -9 -3 -9 -11 0 -43 -70 -43 -93 0 -9 -4 -19 -10 -22 -5 -3
-10 -15 -10 -26 0 -10 -5 -19 -11 -19 -6 0 -9 -7 -6 -15 4 -8 2 -17 -3 -20 -6
-4 -10 -19 -10 -34 0 -15 -5 -32 -12 -39 -7 -7 -8 -12 -4 -12 5 0 3 -7 -4 -15
-9 -11 -9 -15 -1 -15 7 0 6 -9 -5 -25 -9 -14 -13 -25 -8 -25 4 0 3 -5 -4 -12
-7 -7 -12 -17 -12 -22 0 -6 5 -4 10 4 6 9 10 10 10 3 0 -6 -4 -14 -8 -17 -4
-2 -9 -22 -10 -42 -2 -21 -8 -41 -14 -45 -7 -4 -6 -8 3 -12 10 -4 11 -8 3 -14
-6 -4 -10 -25 -10 -45 1 -21 -2 -38 -6 -38 -4 0 -3 -12 2 -26 6 -15 6 -23 1
-19 -5 3 -10 -7 -10 -22 -2 -61 -9 -178 -11 -178 -1 0 -3 -23 -4 -52 0 -28 2
-49 7 -46 4 2 7 -1 7 -6 0 -6 -4 -11 -10 -11 -5 0 -10 -7 -10 -16 0 -8 5 -12
10 -9 6 3 10 1 10 -4 0 -6 -3 -11 -8 -11 -10 0 -9 -3492 1 -3507 5 -8 4 -13
-2 -13 -6 0 -11 -7 -11 -16 0 -8 4 -13 9 -10 5 4 6 -9 1 -29 -5 -20 -4 -33 1
-29 5 3 9 0 9 -5 0 -6 -5 -11 -11 -11 -8 0 -8 -4 0 -14 8 -10 9 -16 1 -21 -6
-3 -7 -11 -4 -17 4 -6 9 -47 11 -92 6 -115 10 -161 12 -161 2 0 4 -21 5 -47 1
-26 5 -50 9 -54 4 -4 7 -27 7 -51 0 -28 4 -43 13 -43 8 0 7 -4 -3 -10 -9 -6
-10 -10 -3 -10 6 0 11 -13 11 -30 -1 -16 5 -37 13 -47 12 -15 12 -16 -1 -8
-12 7 -13 6 -3 -7 7 -8 10 -18 6 -21 -3 -4 -1 -7 5 -7 7 0 12 -16 12 -39 0
-22 5 -43 10 -46 6 -4 8 -11 5 -16 -4 -5 -1 -9 4 -9 6 0 11 -12 11 -26 0 -14
4 -23 10 -19 6 4 10 -7 10 -24 0 -17 5 -31 11 -31 5 0 7 -4 4 -10 -3 -5 -1
-10 5 -10 6 0 9 -4 5 -10 -3 -5 2 -18 12 -30 10 -11 18 -24 18 -28 1 -12 37
-76 53 -94 8 -10 11 -18 7 -18 -4 0 2 -8 13 -19 12 -10 19 -21 15 -25 -3 -3
-1 -6 5 -6 7 0 12 -5 12 -11 0 -7 15 -27 34 -45 19 -18 32 -35 30 -37 -2 -2
19 -27 46 -56 28 -29 50 -58 50 -64 0 -5 3 -8 6 -5 3 4 33 -20 67 -52 33 -32
65 -56 69 -54 4 3 8 -2 8 -10 0 -17 34 -39 44 -29 3 3 6 -1 6 -9 0 -15 26 -33
43 -30 4 1 7 -2 7 -8 0 -5 7 -10 16 -10 9 0 12 -5 8 -12 -5 -8 -2 -9 9 -5 10
3 17 3 17 -1 0 -8 52 -41 61 -39 3 1 14 -6 24 -16 9 -10 24 -16 32 -13 8 3 11
1 8 -4 -3 -6 3 -10 14 -10 12 0 21 -5 21 -10 0 -6 3 -9 8 -8 4 1 25 -6 47 -16
22 -10 49 -19 59 -22 11 -2 24 -8 30 -14 5 -5 22 -10 37 -10 15 0 31 -4 34
-10 3 -5 12 -10 18 -10 7 0 6 4 -3 10 -10 7 -11 10 -2 10 7 0 15 -7 18 -15 5
-12 10 -13 20 -4 11 9 14 9 14 0 0 -7 4 -9 10 -6 5 3 10 1 10 -5 0 -6 5 -8 10
-5 6 3 16 3 23 -2 14 -9 18 -9 75 -11 30 -2 41 -6 36 -14 -5 -7 -3 -8 6 -3 18
11 60 13 66 3 3 -5 10 -6 15 -3 5 4 9 1 9 -6 0 -8 4 -8 15 1 12 10 15 10 15 0
0 -9 3 -10 13 -1 9 7 17 7 24 0 5 -5 49 -11 96 -12 47 -1 84 -4 82 -8 -2 -3 2
-6 10 -6 8 0 12 4 9 9 -3 4 0 8 5 8 6 0 11 -5 11 -11 0 -8 4 -8 13 0 10 8 17
7 26 -2 9 -9 14 -9 22 3 8 12 12 12 16 2 4 -10 8 -10 21 0 12 10 14 10 8 0 -4
-6 -3 -12 3 -12 5 0 12 6 14 13 4 9 8 9 15 -2 7 -9 12 -10 16 -2 4 6 13 8 19
4 20 -12 178 -13 171 -1 -5 7 -2 8 7 2 22 -13 189 -14 189 -1 0 8 3 9 8 2 10
-15 105 -15 114 -1 5 7 8 8 8 0 0 -14 73 -14 82 0 5 7 8 7 8 1 0 -6 16 -12 36
-13 25 -2 34 1 28 9 -5 8 -3 9 7 3 22 -13 189 -14 189 -1 0 8 3 9 8 2 10 -15
105 -15 114 -1 5 7 8 8 8 0 0 -14 73 -14 82 0 5 7 8 7 8 1 0 -6 16 -12 36 -13
25 -2 34 1 28 9 -5 8 -3 9 7 3 22 -13 189 -14 189 -1 0 8 3 9 8 2 10 -15 105
-15 114 -1 5 7 8 8 8 0 0 -14 73 -14 82 0 5 7 8 7 8 1 0 -6 16 -12 36 -13 27
-2 34 0 28 10 -6 10 -4 10 7 2 22 -16 177 -18 196 -2 10 7 14 8 10 1 -10 -15
92 -16 112 0 10 8 12 8 8 1 -9 -16 333 -17 352 -1 11 9 13 9 8 0 -10 -15 92
-16 112 0 9 8 12 8 8 1 -9 -16 492 -17 512 -1 11 9 13 9 8 0 -10 -15 92 -16
112 0 10 8 12 8 8 1 -9 -16 333 -17 352 -1 12 9 13 9 8 0 -6 -9 2 -12 28 -11
20 1 38 6 42 11 3 5 10 3 15 -4 8 -11 11 -11 15 -1 4 10 8 10 21 0 12 -10 14
-10 8 -1 -4 7 -2 13 3 13 6 0 11 -5 11 -11 0 -8 5 -7 16 2 13 10 17 10 25 -2
6 -10 9 -10 9 -2 0 8 14 12 40 11 25 -1 37 -5 33 -12 -4 -6 3 -2 15 8 21 18
27 15 22 -9 -1 -5 4 -4 11 2 7 7 35 13 61 13 32 0 48 4 48 13 0 7 3 8 8 2 6
-9 28 -11 42 -5 3 1 23 4 45 5 22 1 48 6 57 10 9 4 21 4 27 1 5 -4 12 -2 15 2
3 5 17 7 31 4 14 -2 25 0 25 6 0 5 16 9 36 8 20 -1 38 4 41 10 2 6 16 9 30 6
20 -4 24 -2 18 9 -7 11 -5 11 10 -1 11 -9 16 -10 11 -3 -5 9 -1 13 13 13 31 0
52 11 44 24 -4 6 0 6 9 -2 13 -10 18 -10 30 1 7 8 21 13 31 11 9 -1 17 1 17 5
0 8 101 47 113 43 5 -1 6 2 3 7 -5 8 29 25 47 22 4 -1 7 3 7 8 0 5 9 11 21 14
12 3 18 10 14 16 -3 7 0 8 9 5 9 -3 23 1 31 10 9 9 23 16 30 16 8 0 17 5 21
12 5 7 2 8 -7 3 -10 -5 -11 -5 -4 3 6 6 16 12 24 14 22 5 51 30 45 40 -3 4 2
8 10 8 9 0 16 5 16 11 0 6 6 9 13 6 13 -5 39 17 31 26 -3 3 4 8 15 12 12 3 21
13 21 21 0 8 3 13 8 11 4 -2 19 9 34 24 15 16 25 29 21 29 -3 0 7 10 23 23 16
12 33 20 39 19 5 -2 7 0 3 4 -4 4 0 13 10 21 11 10 12 12 2 8 -10 -4 -9 -2 3
8 9 8 17 20 17 26 0 7 5 9 10 6 6 -3 10 -1 10 6 0 6 12 22 26 35 14 13 22 29
19 34 -3 6 1 10 10 10 9 0 13 4 10 10 -3 5 -2 10 3 10 9 0 55 77 59 100 1 8
10 20 19 27 10 7 14 13 10 13 -5 0 -3 7 4 15 7 8 9 15 4 15 -4 0 1 7 12 15 10
8 15 15 10 15 -4 0 -1 11 8 25 9 13 16 31 16 40 0 9 5 13 11 9 6 -4 9 1 8 12
-2 11 3 30 10 43 11 19 11 22 -1 15 -7 -4 -6 1 4 12 9 10 18 33 21 49 2 17 7
38 12 48 4 10 5 20 2 24 -3 3 0 12 8 19 7 8 11 23 8 34 -3 11 -1 26 5 33 6 7
12 36 13 65 2 29 6 55 9 57 4 2 5 22 4 45 -1 22 2 40 7 40 6 0 5 8 -1 19 -6
12 -6 21 0 23 5 2 10 56 11 123 1 66 5 125 9 130 8 12 7 26 -3 42 -4 6 -3 14
3 18 5 3 10 15 10 26 0 14 -4 18 -12 13 -10 -6 -10 -5 -2 7 15 18 16 162 2
153 -5 -3 -4 4 4 15 11 18 11 23 -2 31 -9 6 -10 10 -3 10 8 0 12 18 12 55 -1
38 -4 53 -13 48 -8 -5 -8 -3 0 8 15 18 16 162 2 153 -5 -3 -4 4 4 15 11 18 11
23 -2 31 -9 6 -10 10 -3 10 8 0 12 18 12 55 -1 38 -4 53 -13 48 -8 -5 -8 -3 0
8 16 19 16 162 1 152 -9 -5 -9 -3 0 8 16 20 15 122 0 112 -9 -5 -8 -3 0 8 16
20 15 122 0 112 -9 -5 -9 -3 0 8 16 19 15 361 -1 352 -7 -4 -7 -2 1 8 16 20
15 122 0 112 -9 -5 -9 -3 0 8 16 20 16 359 0 359 -9 0 -9 2 -1 8 14 9 14 104
-1 114 -7 5 -6 8 2 8 13 0 12 167 -1 189 -6 10 -5 12 3 7 8 -6 11 3 9 28 -1
20 -7 36 -13 36 -6 0 -6 3 1 8 14 9 14 82 0 82 -8 0 -7 3 0 8 14 9 14 104 -1
114 -7 5 -6 8 2 8 13 0 12 167 -1 189 -6 10 -5 12 3 7 8 -6 11 3 9 28 -1 20
-7 36 -13 36 -6 0 -6 3 1 8 14 9 14 82 0 82 -8 0 -7 3 0 8 14 9 14 104 -1 114
-7 5 -6 8 2 8 13 0 12 167 -1 189 -6 10 -5 12 3 7 8 -6 11 3 9 28 -1 20 -7 36
-13 36 -6 0 -6 3 1 8 14 9 14 82 0 82 -8 0 -7 3 0 8 14 9 14 104 -1 114 -6 5
-6 8 2 8 7 0 11 15 10 40 -1 22 -6 40 -10 40 -5 0 -4 7 3 15 9 11 9 15 1 15
-9 0 -9 5 -1 20 8 14 8 20 0 20 -8 0 -8 6 0 20 8 14 8 20 0 20 -7 0 -8 6 0 19
5 11 7 22 3 24 -5 3 -9 45 -11 93 -2 49 -7 94 -13 100 -7 8 -6 14 1 19 8 5 8
11 -1 21 -8 10 -8 14 0 14 7 0 8 8 2 23 -4 12 -7 30 -6 40 2 9 0 17 -4 17 -4
0 -8 19 -10 43 -2 40 -8 82 -11 82 -1 0 -3 9 -5 20 -2 11 -7 36 -11 55 -4 19
-7 43 -8 52 0 9 -4 14 -8 12 -4 -3 -8 11 -8 31 0 20 -4 34 -9 31 -7 -5 -14 18
-23 81 -1 7 -5 10 -10 7 -7 -5 -12 18 -9 39 0 4 -4 7 -10 7 -5 0 -7 5 -4 10 3
6 1 10 -5 10 -6 0 -9 4 -5 9 3 6 -3 14 -12 20 -11 6 -13 11 -5 11 10 0 9 4 -3
16 -9 9 -14 23 -11 31 3 8 2 12 -2 9 -5 -3 -19 15 -32 40 -14 24 -28 44 -32
44 -5 0 -8 8 -8 18 0 10 -11 29 -25 42 -13 12 -22 26 -20 31 3 4 -4 10 -15 14
-11 3 -20 11 -20 16 0 9 -27 44 -62 81 -10 10 -18 23 -18 29 0 5 -4 7 -10 4
-5 -3 -10 1 -10 9 0 9 -5 16 -10 16 -6 0 -28 18 -49 40 -21 22 -43 40 -49 40
-6 0 -16 9 -22 20 -6 11 -15 18 -21 15 -5 -4 -8 -3 -7 2 2 4 -1 10 -7 12 -5 2
-20 14 -32 27 -12 13 -27 24 -33 24 -5 0 -10 5 -10 11 0 5 -4 7 -10 4 -5 -3
-10 -1 -10 4 0 6 -7 11 -16 11 -9 0 -12 5 -8 12 5 8 2 9 -9 5 -11 -4 -17 -1
-17 8 0 9 -8 12 -20 10 -11 -2 -18 0 -15 6 4 5 -1 9 -9 9 -9 0 -16 5 -16 10 0
6 -7 10 -15 10 -8 0 -15 5 -15 11 0 5 -4 7 -10 4 -6 -3 -10 -1 -10 6 0 7 -3 9
-6 6 -4 -4 -25 3 -48 14 -23 12 -49 26 -60 31 -14 7 -16 6 -10 -4 4 -7 -2 -5
-13 5 -11 9 -23 14 -26 10 -4 -3 -7 -1 -7 6 0 7 -7 11 -15 8 -8 -4 -17 -2 -20
3 -4 6 -19 10 -34 10 -15 0 -32 5 -39 12 -7 7 -12 8 -12 2 0 -5 -5 -2 -10 6
-8 12 -10 12 -10 1 0 -10 -3 -11 -14 -2 -8 7 -28 13 -45 13 -17 1 -31 5 -31
11 0 5 -8 3 -17 -4 -11 -10 -14 -10 -9 -1 5 9 -4 12 -33 12 -26 0 -41 5 -41
13 0 9 -3 8 -9 -2 -5 -7 -11 -9 -14 -4 -3 5 -20 9 -39 8 -18 0 -36 5 -40 10
-5 6 -8 5 -8 -3 0 -7 -4 -10 -10 -7 -16 10 -43 13 -167 20 -181 11 -232 11
-225 1 3 -5 -1 -5 -9 0 -21 13 -1822 13 -1831 0 -5 -7 -8 -7 -8 -1 0 12 -1654
14 -1666 2 -11 -10 -26 -9 -19 2 3 6 -6 6 -24 1 -19 -5 -33 -4 -40 3 -8 8 -11
8 -11 -1 0 -7 -5 -12 -11 -12 -5 0 -8 3 -6 8 3 4 -10 7 -28 7 -18 0 -31 -3
-29 -7 7 -10 -100 -5 -107 6 -4 4 -8 3 -11 -4z"/>
</g>
</svg>
